<?xml version="1.0" standalone="no"?>
<!DOCTYPE svg PUBLIC "-//W3C//DTD SVG 20010904//EN"
 "http://www.w3.org/TR/2001/REC-SVG-20010904/DTD/svg10.dtd">
<svg version="1.0" xmlns="http://www.w3.org/2000/svg"
 width="752.000000pt" height="752.000000pt" viewBox="0 0 752.000000 752.000000"
 preserveAspectRatio="xMidYMid meet">
<metadata>
Created by potrace 1.14, written by Peter Selinger 2001-2017
</metadata>
<g transform="translate(0.000000,752.000000) scale(0.100000,-0.100000)"
fill="#000000" stroke="none">
<path d="M5385 6378 c-22 -4 -60 -15 -85 -24 -67 -25 -306 -172 -327 -201 -34
-48 -99 -110 -124 -118 -38 -13 -88 -14 -123 -3 -56 17 -141 40 -161 43 -102
17 -150 27 -156 30 -8 5 -56 12 -139 21 -30 3 -82 9 -115 13 -33 5 -127 10
-210 11 -82 1 -166 3 -185 5 -19 2 -98 4 -175 4 -77 0 -169 1 -205 2 -216 6
-349 0 -455 -20 -27 -5 -80 -12 -117 -16 -37 -3 -97 -15 -135 -26 -92 -26
-103 -29 -137 -35 -57 -11 -92 4 -147 62 -38 39 -81 69 -144 101 -49 24 -98
52 -107 60 -10 9 -18 12 -18 7 0 -5 -4 -4 -8 1 -13 18 -79 44 -143 55 -152 28
-267 7 -398 -71 -59 -34 -156 -128 -166 -159 -4 -11 -10 -20 -14 -20 -5 0 -35
-44 -66 -97 -58 -98 -199 -253 -230 -253 -7 0 -15 -4 -17 -8 -1 -5 -64 -51
-138 -104 -137 -97 -150 -107 -231 -181 -62 -56 -92 -82 -139 -116 -70 -51
-105 -85 -133 -134 -15 -26 -25 -47 -23 -47 3 0 -7 -21 -23 -47 -40 -65 -45
-105 -18 -140 12 -14 87 -92 167 -172 80 -80 154 -164 165 -186 11 -22 22 -42
25 -45 3 -3 16 -18 28 -35 69 -89 191 -145 327 -150 50 -2 93 -3 97 -4 8 -1
56 -49 100 -99 19 -22 32 -29 47 -25 12 3 21 11 21 18 0 7 13 27 30 45 29 31
31 32 92 25 128 -15 204 -54 227 -117 7 -18 17 -41 23 -51 5 -11 7 -21 5 -24
-3 -2 -1 -19 4 -36 5 -18 12 -48 15 -67 2 -19 7 -46 10 -60 3 -14 8 -36 10
-50 2 -14 9 -45 14 -70 21 -98 33 -319 19 -356 -4 -12 -5 -25 -1 -28 3 -4 7
-20 7 -36 1 -23 -2 -27 -12 -18 -10 8 -12 7 -7 -6 3 -9 9 -16 13 -16 4 0 7
-11 7 -25 0 -19 -3 -22 -13 -13 -10 8 -12 7 -7 -6 3 -9 10 -16 15 -16 6 0 4
-6 -3 -14 -7 -8 -17 -12 -21 -9 -5 3 -3 -5 5 -16 11 -18 11 -23 -2 -32 -12 -9
-11 -10 7 -6 17 4 21 1 17 -17 -2 -11 -8 -22 -14 -24 -5 -2 -10 -8 -10 -13 0
-6 4 -8 8 -5 4 2 14 1 22 -5 9 -5 10 -9 3 -9 -6 0 -10 -8 -8 -17 1 -10 8 -17
14 -16 6 2 11 -2 11 -7 0 -14 -23 -12 -40 3 -9 7 -8 4 1 -8 18 -22 21 -54 8
-71 -5 -7 -3 -11 6 -11 8 0 12 4 9 9 -3 4 0 8 5 8 14 0 14 -17 1 -25 -6 -3
-10 -11 -10 -16 0 -6 5 -7 12 -3 7 5 8 3 2 -7 -11 -19 -14 -39 -5 -39 4 0 8
-7 8 -15 0 -9 -5 -14 -12 -12 -6 3 -11 -4 -11 -14 0 -13 4 -15 12 -8 8 7 15 6
20 -2 4 -8 3 -9 -4 -5 -11 6 -14 0 -11 -20 0 -4 -5 -11 -13 -16 -10 -8 -10 -9
2 -5 8 2 14 11 12 18 -2 8 0 11 4 6 12 -12 12 -45 -1 -41 -6 3 -11 -5 -12 -16
-1 -11 2 -18 7 -15 5 3 3 -9 -4 -27 -7 -18 -12 -40 -9 -48 2 -8 -3 -3 -12 13
-21 36 -26 34 -12 -3 9 -23 9 -35 -1 -50 -17 -28 -15 -35 6 -19 13 11 12 8 -3
-11 -11 -14 -27 -31 -35 -38 -8 -7 -9 -11 -2 -7 6 3 12 1 12 -4 0 -11 -11 -14
-27 -9 -5 2 -7 7 -5 11 1 5 -2 6 -8 2 -6 -4 -5 -13 3 -26 10 -17 9 -22 -6 -30
-18 -10 -18 -12 -1 -30 9 -11 14 -22 11 -26 -4 -3 -7 -2 -7 4 0 6 -6 13 -13
16 -8 3 -12 -5 -12 -24 -1 -15 3 -25 9 -22 5 4 7 -1 3 -11 -4 -10 -2 -27 4
-39 9 -19 7 -19 -11 3 -18 22 -20 22 -11 3 6 -12 8 -28 5 -37 -4 -11 0 -14 16
-11 13 2 19 1 16 -3 -4 -4 -12 -8 -17 -8 -22 -3 -23 -5 -9 -14 12 -8 12 -10
-5 -10 -16 0 -17 -2 -5 -9 8 -6 18 -7 22 -5 4 3 5 -2 2 -10 -3 -9 -11 -16 -17
-16 -6 0 -2 -7 10 -15 l22 -16 -19 -34 c-11 -19 -17 -35 -14 -35 4 0 0 -8 -7
-17 -8 -9 -9 -14 -4 -11 6 4 17 3 25 -3 12 -7 11 -9 -5 -9 -17 -1 -16 -3 5
-11 23 -10 24 -11 7 -24 -16 -11 -16 -14 -3 -28 13 -13 14 -16 1 -21 -16 -6
-10 -35 9 -48 7 -5 7 -8 -1 -8 -7 0 -13 -5 -13 -11 0 -5 5 -7 10 -4 5 3 10 1
10 -4 0 -6 -9 -11 -20 -11 -11 0 -20 -5 -20 -11 0 -6 7 -8 16 -5 10 4 13 2 8
-6 -5 -8 -1 -9 12 -4 16 6 16 4 -4 -14 -13 -12 -27 -18 -35 -14 -7 5 -5 0 3
-11 14 -17 13 -18 -4 -11 -19 6 -19 6 -4 -11 15 -17 15 -20 -2 -40 -9 -12 -20
-20 -23 -17 -3 3 -14 1 -24 -5 -17 -11 -17 -11 1 -9 10 2 21 -3 23 -10 3 -7
-1 -10 -11 -6 -11 4 -14 0 -11 -16 4 -19 2 -20 -12 -8 -13 10 -15 10 -9 0 4
-7 0 -24 -9 -39 -12 -18 -19 -22 -25 -13 -5 8 -9 7 -13 -5 -4 -9 -3 -13 3 -10
6 3 10 1 10 -5 0 -6 -8 -10 -18 -8 -9 2 -16 10 -14 17 1 7 -2 9 -9 6 -7 -5 -3
-16 13 -32 l23 -26 -25 13 c-23 12 -24 12 -11 -4 13 -16 13 -17 -4 -14 -21 3
-28 -22 -10 -34 6 -5 3 -8 -7 -8 -10 0 -18 -5 -18 -11 0 -5 -6 -7 -12 -3 -7 4
-4 -3 7 -16 l20 -23 -21 11 c-27 14 -42 -1 -40 -39 1 -22 -2 -26 -21 -24 -12
1 -20 -1 -18 -6 3 -4 2 -9 -2 -12 -5 -2 -1 -2 7 0 11 2 11 0 -2 -10 -10 -8
-15 -16 -12 -19 2 -3 -3 -5 -13 -5 -34 0 -43 -3 -43 -14 0 -5 4 -7 10 -4 5 3
10 1 10 -4 0 -6 -5 -11 -11 -11 -5 0 -7 -6 -3 -12 6 -10 5 -10 -7 -1 -12 9
-22 5 -54 -21 -29 -24 -35 -35 -25 -41 9 -6 11 -4 5 5 -5 9 -4 11 4 6 9 -6 9
-11 0 -22 -13 -16 -23 -19 -14 -4 3 5 1 10 -4 10 -6 0 -11 -9 -11 -20 0 -11
-7 -20 -15 -20 -8 0 -15 -5 -15 -11 0 -8 -6 -7 -17 2 -14 10 -13 8 2 -10 16
-20 17 -23 3 -18 -23 8 -29 -2 -16 -27 11 -20 10 -20 -7 -6 -11 9 -16 10 -11
2 4 -6 2 -12 -3 -12 -6 0 -11 -8 -11 -19 0 -10 -8 -25 -17 -32 -16 -13 -17
-12 -4 4 7 9 9 17 3 17 -15 0 -22 -26 -10 -38 6 -6 3 -9 -11 -8 -11 0 -20 -1
-19 -4 1 -3 -4 -15 -11 -28 -10 -19 -15 -21 -28 -11 -10 9 -8 1 6 -24 22 -40
21 -46 -2 -22 -13 13 -16 11 -26 -15 -5 -17 -16 -30 -22 -30 -10 0 -10 3 -1
12 20 20 14 30 -6 11 -15 -14 -17 -23 -9 -38 l10 -20 -23 20 -23 20 11 -20
c11 -22 -9 -62 -26 -51 -5 3 -15 -1 -21 -8 -8 -10 -9 -16 -1 -21 10 -6 14 1
11 18 -1 5 3 6 9 2 8 -5 8 -11 1 -19 -6 -7 -8 -15 -5 -18 2 -3 -2 -8 -11 -12
-11 -4 -14 -2 -9 7 6 9 4 9 -8 -1 -10 -8 -13 -22 -10 -39 3 -17 1 -24 -6 -19
-6 3 -14 1 -19 -6 -12 -20 -12 -38 -1 -38 6 0 7 8 3 18 -5 13 -3 14 6 5 13
-13 4 -33 -15 -33 -7 0 -13 -7 -13 -15 0 -9 6 -14 14 -11 8 3 11 1 8 -4 -4 -6
-14 -9 -23 -8 -12 2 -17 -4 -16 -19 0 -12 -4 -21 -10 -20 -6 1 -10 -4 -8 -10
1 -7 -2 -13 -8 -13 -5 0 -10 -5 -10 -11 0 -5 6 -7 13 -4 6 4 3 0 -7 -9 -10 -8
-23 -13 -29 -9 -6 3 -7 1 -3 -5 5 -9 606 -12 2376 -12 l2368 0 -2 30 c-1 16
-6 33 -10 37 -4 4 -6 2 -4 -6 2 -7 -3 -16 -11 -19 -10 -3 -12 0 -8 11 7 18
-16 30 -30 16 -6 -6 -10 -4 -10 5 0 8 4 13 9 10 4 -3 8 2 8 10 0 9 -7 13 -20
11 -11 -2 -20 0 -20 6 0 5 7 9 15 9 8 0 15 4 15 10 0 5 -7 7 -15 4 -8 -4 -15
-1 -15 6 0 6 -6 8 -12 4 -10 -6 -10 -4 0 7 6 7 12 18 12 24 0 5 -5 3 -10 -5
-7 -11 -10 -11 -10 -2 0 7 -5 10 -12 6 -7 -5 -8 -3 -2 7 12 20 14 40 3 33 -5
-3 -6 -10 -3 -16 4 -7 2 -8 -4 -4 -6 4 -8 14 -5 23 4 11 3 14 -5 9 -11 -6 -17
5 -13 27 0 4 -5 7 -12 7 -8 0 -7 4 3 10 11 7 11 10 2 10 -7 0 -10 5 -7 10 3 6
2 10 -4 10 -5 0 -11 -6 -14 -12 -3 -7 -4 -3 -4 9 1 12 4 20 7 18 3 -2 6 5 6
15 0 10 -4 16 -8 14 -4 -3 -8 0 -8 5 0 6 -6 11 -14 11 -8 0 -18 5 -22 12 -4 6
-3 8 2 5 5 -3 10 3 10 13 0 14 -4 16 -12 9 -8 -7 -15 -6 -20 2 -4 8 -3 9 4 5
7 -4 12 -2 12 3 0 6 -7 11 -16 11 -8 0 -12 5 -9 10 3 6 -1 10 -10 10 -9 0 -13
5 -10 10 4 6 11 7 17 4 7 -4 8 -2 4 4 -4 6 -14 8 -23 5 -12 -5 -15 -2 -11 8 4
11 0 15 -16 15 -15 -1 -20 4 -18 17 2 9 -1 17 -5 16 -23 -4 -31 3 -27 24 2 12
2 16 -2 10 -10 -21 -23 -14 -19 10 4 21 3 21 -9 4 -9 -12 -16 -14 -21 -8 -3 6
-1 11 4 11 6 0 11 5 11 11 0 5 -4 7 -10 4 -5 -3 -10 -1 -10 5 0 6 -6 8 -12 4
-7 -4 -10 -3 -5 1 4 5 -1 17 -10 29 -15 16 -12 16 17 -4 l35 -25 -25 32 c-14
18 -30 32 -37 32 -6 1 -15 6 -19 12 -4 8 1 9 17 5 13 -3 18 -3 11 0 -6 3 -9
11 -6 16 5 7 2 8 -6 3 -10 -6 -12 -4 -7 8 7 19 -8 32 -19 16 -5 -8 -3 -9 6 -4
9 6 11 4 6 -4 -9 -14 -19 -7 -22 14 -1 8 2 13 7 9 5 -3 9 2 9 11 0 9 -4 14 -9
10 -5 -3 -12 -1 -15 4 -4 5 -1 13 5 17 8 5 9 3 4 -6 -5 -8 -4 -11 3 -6 17 10
3 36 -16 29 -10 -3 -8 1 6 11 23 18 29 36 11 36 -5 0 -7 -6 -3 -12 4 -7 -1 -5
-12 4 -15 14 -16 20 -5 30 10 11 11 9 6 -7 -6 -16 -5 -17 4 -5 8 11 7 18 -6
27 -9 7 -13 13 -7 13 5 0 2 5 -6 10 -12 8 -12 10 -1 10 7 0 1 10 -15 22 -16
13 -33 22 -39 20 -5 -2 -7 0 -2 4 4 4 0 16 -10 26 -9 10 -12 18 -6 18 13 0 13
33 -1 42 -8 6 -7 8 1 8 6 0 10 9 8 20 -2 11 0 20 5 20 5 0 7 7 4 15 -4 8 -2
15 3 15 5 0 10 12 11 27 1 15 5 29 10 32 6 5 11 24 14 59 1 6 5 12 9 12 4 0 6
9 4 20 -2 11 0 20 4 20 4 0 8 6 9 13 2 27 9 46 21 61 10 12 11 16 1 16 -10 0
-10 3 -1 14 7 8 14 31 16 52 2 22 4 39 5 39 1 0 11 83 13 103 0 6 4 12 7 12 4
0 8 10 8 23 1 28 6 49 13 62 4 6 5 18 4 28 -2 9 0 17 4 17 4 0 8 9 9 20 1 11
3 29 4 40 1 11 5 20 8 20 8 0 13 47 11 115 -4 114 -4 250 1 266 2 10 10 24 17
33 7 9 10 16 5 16 -4 0 2 9 14 20 24 22 79 107 101 155 7 17 23 48 34 70 12
22 20 40 18 40 -2 0 12 42 26 75 3 8 5 18 5 23 -1 4 3 7 10 7 6 0 9 3 5 6 -3
4 0 22 8 40 8 19 12 34 10 34 -3 0 4 17 14 38 11 20 22 51 25 67 9 57 14 71
40 117 14 26 26 54 26 62 0 9 4 16 9 16 12 0 66 225 78 325 1 17 5 47 8 68 6
52 42 125 68 139 12 6 24 15 27 19 3 5 42 18 85 28 67 17 86 26 115 58 19 21
37 38 40 39 3 0 43 12 90 26 48 15 122 29 170 32 172 11 233 37 333 139 84 86
146 190 182 307 18 60 43 90 74 90 17 0 31 -19 31 -43 0 -4 11 -29 25 -57 14
-27 25 -60 26 -72 0 -13 15 -59 33 -103 39 -95 69 -120 99 -83 16 19 18 33 12
88 -10 107 -10 271 1 278 6 4 16 23 24 42 7 19 24 53 36 75 13 23 25 50 27 60
2 11 18 49 35 85 29 63 51 149 46 182 -5 36 -39 90 -79 126 -27 24 -128 81
-260 147 l-216 107 -97 97 c-53 53 -113 108 -131 121 -19 14 -42 32 -51 40
-56 54 -213 160 -310 208 -166 84 -245 101 -445 100 -88 -1 -178 -5 -200 -10z
m-3575 -3058 c0 -5 -5 -10 -11 -10 -5 0 -7 5 -4 10 3 6 8 10 11 10 2 0 4 -4 4
-10z m17 -205 c0 -8 -4 -12 -9 -9 -5 3 -6 10 -3 15 9 13 12 11 12 -6z m14
-102 c13 -16 12 -17 -3 -4 -10 7 -18 15 -18 17 0 8 8 3 21 -13z m-116 -743
c-3 -5 -12 -10 -18 -10 -7 0 -6 4 3 10 19 12 23 12 15 0z m2 -26 c-3 -3 -12
-4 -19 -1 -8 3 -5 6 6 6 11 1 17 -2 13 -5z m-247 -604 c0 -5 -5 -10 -11 -10
-5 0 -7 5 -4 10 3 6 8 10 11 10 2 0 4 -4 4 -10z m-2 -45 c-3 -3 -9 2 -12 12
-6 14 -5 15 5 6 7 -7 10 -15 7 -18z m-141 -120 c0 -8 -4 -12 -9 -9 -4 3 -11
-1 -14 -9 -2 -7 -12 -14 -20 -14 -10 0 -5 8 13 23 15 13 28 23 29 24 0 0 1 -7
1 -15z m-212 -273 c-3 -3 -11 0 -18 7 -9 10 -8 11 6 5 10 -3 15 -9 12 -12z
m-18 -32 c2 -20 -8 -26 -20 -13 -4 3 -2 12 4 20 15 17 14 17 16 -7z m-42 -50
c3 -5 1 -10 -4 -10 -6 0 -11 5 -11 10 0 6 2 10 4 10 3 0 8 -4 11 -10z m4260
-69 c3 -5 2 -12 -3 -15 -5 -3 -9 1 -9 9 0 17 3 19 12 6z m-4445 -247 c0 -8
-19 -13 -24 -6 -3 5 1 9 9 9 8 0 15 -2 15 -3z m4637 -67 c0 -8 -6 -14 -14 -14
-9 0 -10 4 -2 14 6 7 12 13 14 13 1 0 2 -6 2 -13z"/>
<path d="M1780 3250 c-9 -6 -10 -10 -3 -10 6 0 15 5 18 10 8 12 4 12 -15 0z"/>
<path d="M1793 2835 c0 -8 4 -12 9 -9 5 3 6 10 3 15 -9 13 -12 11 -12 -6z"/>
<path d="M1750 2721 c0 -6 4 -13 10 -16 6 -3 7 1 4 9 -7 18 -14 21 -14 7z"/>
<path d="M1688 2333 c6 -2 10 -9 6 -14 -3 -5 -1 -9 5 -9 17 0 21 18 5 24 -9 3
-19 6 -22 5 -4 0 -1 -3 6 -6z"/>
<path d="M1670 1939 c0 -5 5 -7 10 -4 6 3 10 8 10 11 0 2 -4 4 -10 4 -5 0 -10
-5 -10 -11z"/>
<path d="M1595 1829 c-4 -6 -5 -12 -2 -15 2 -3 7 2 10 11 7 17 1 20 -8 4z"/>
<path d="M4956 1701 c-3 -4 5 -18 18 -30 18 -17 26 -19 31 -10 5 7 4 10 -2 6
-12 -8 -46 27 -36 36 3 4 4 7 0 7 -3 0 -8 -4 -11 -9z"/>
<path d="M5205 1210 c-3 -6 1 -7 9 -4 18 7 21 14 7 14 -6 0 -13 -4 -16 -10z"/>
<path d="M959 1062 c9 -7 10 -11 2 -15 -7 -4 -8 -5 0 -3 15 2 13 20 -3 24 -10
3 -10 2 1 -6z"/>
</g>
</svg>
